<?xml version="1.0" encoding="utf-8"?>
<svg viewBox="0 0 492 492" style="enable-background:new 0 0 492 492;" xmlns="http://www.w3.org/2000/svg">
  <g>
    <g>
      <path d="M 278.755 240.716 L 406.379 107.717 C 409.89 104.056 411.818 99.178 411.808 93.983 C 411.792 88.784 409.834 83.91 406.297 80.272 L 395.041 68.676 C 391.503 65.024 386.795 63.03 381.777 63.042 C 376.766 63.055 372.069 65.072 368.553 68.742 L 240.929 201.732 L 112.498 69.376 C 108.965 65.724 104.254 63.731 99.238 63.743 C 94.227 63.756 89.528 65.772 86.017 69.442 L 74.828 81.093 C 67.546 88.682 67.584 100.995 74.911 108.538 L 203.341 240.903 L 75.714 373.897 C 72.202 377.564 70.275 382.442 70.291 387.637 C 70.307 392.832 72.263 397.701 75.797 401.348 L 87.055 412.945 C 90.587 416.593 95.302 418.589 100.309 418.577 C 105.326 418.564 110.025 416.545 113.534 412.878 L 241.164 279.884 L 369.59 412.244 C 373.129 415.892 377.837 417.889 382.848 417.877 L 382.853 417.877 C 387.867 417.864 392.563 415.844 396.078 412.178 L 407.263 400.526 C 410.774 396.866 412.702 391.985 412.686 386.788 C 412.671 381.593 410.713 376.724 407.179 373.078 L 278.755 240.716 Z" style="fill: rgb(165, 165, 255);"/>
    </g>
  </g>
  <g/>
  <g/>
  <g/>
  <g/>
  <g/>
  <g/>
  <g/>
  <g/>
  <g/>
  <g/>
  <g/>
  <g/>
  <g/>
  <g/>
  <g/>
</svg>