<?xml version="1.0" encoding="utf-8"?>
<svg viewBox="0 0 492 492" style="enable-background:new 0 0 492 492;" xmlns="http://www.w3.org/2000/svg" xmlns:bx="https://boxy-svg.com">
  <defs>
    <filter id="morphology-filter-0" x="-500%" y="-500%" width="1000%" height="1000%" bx:preset="morphology 1 dilate 8">
      <feMorphology operator="dilate" radius="8"/>
    </filter>
  </defs>
  <g>
    <g>
      <path d="M 283.716 245.906 L 411.34 112.907 C 414.851 109.246 416.779 104.368 416.769 99.173 C 416.753 93.974 414.795 89.1 411.258 85.462 L 400.002 73.866 C 396.464 70.214 391.756 68.22 386.738 68.232 C 381.727 68.245 377.03 70.262 373.514 73.932 L 245.89 206.922 L 117.459 74.566 C 113.926 70.914 109.215 68.921 104.199 68.933 C 99.188 68.946 94.489 70.962 90.978 74.632 L 79.789 86.283 C 72.507 93.872 72.545 106.185 79.872 113.728 L 208.302 246.093 L 80.675 379.087 C 77.163 382.754 75.236 387.632 75.252 392.827 C 75.268 398.022 77.224 402.891 80.758 406.538 L 92.016 418.135 C 95.548 421.783 100.263 423.779 105.27 423.767 C 110.287 423.754 114.986 421.735 118.495 418.068 L 246.125 285.074 L 374.551 417.434 C 378.09 421.082 382.798 423.079 387.809 423.067 L 387.814 423.067 C 392.828 423.054 397.524 421.034 401.039 417.368 L 412.224 405.716 C 415.735 402.056 417.663 397.175 417.647 391.978 C 417.632 386.783 415.674 381.914 412.14 378.268 L 283.716 245.906 Z" style="fill-rule: nonzero; paint-order: stroke; filter: url(#morphology-filter-0); fill: rgb(255, 97, 97);"/>
    </g>
  </g>
  <g/>
  <g/>
  <g/>
  <g/>
  <g/>
  <g/>
  <g/>
  <g/>
  <g/>
  <g/>
  <g/>
  <g/>
  <g/>
  <g/>
  <g/>
</svg>