<?xml version="1.0" encoding="utf-8"?>
<svg viewBox="0 0 500 500" xmlns="http://www.w3.org/2000/svg">
  <g transform="matrix(2.68313, 0, 0, -2.698766, 93.476349, 494.845764)" style="">
    <title>3</title>
    <desc>Created with Sketch.</desc>
    <g id="Mask-_x2B_-Mask-Mask" transform="translate(14.000000, 0.000000)">
      <g id="Mask"/>
      <g id="Mask_1_" transform="matrix(-1, 0, 0, 1, 89.161453, -1.909852)">
        <path class="st0" d="M138,141.2c-3.6,0.5-7.3,0.8-11,0.8c-29.6,0-55.4-16.5-68.6-40.9c-6-11-9.4-23.7-9.4-37.1 c0-26.5,13.2-49.9,33.4-64H138v129.5" style="opacity: 0.2; fill-rule: evenodd; fill: rgb(8, 116, 225);"/>
      </g>
      <g id="Mask_2_" transform="matrix(-1, 0, 0, 1, 89.161453, -1.909852)">
        <path class="st0" d="M138,141.2V187H-15c0.2-43.3,31.9-79.1,73.4-85.9c4.6-0.8,9.3-1.1,14.1-1.1c26.1,0,49.5,11.4,65.5,29.5" style="opacity: 0.2; fill-rule: evenodd; fill: rgb(8, 116, 225);"/>
      </g>
    </g>
  </g>
</svg>