<?xml version="1.0" encoding="utf-8"?>
<svg viewBox="0 0 500 500" xmlns="http://www.w3.org/2000/svg">
  <defs>
    <radialGradient gradientUnits="userSpaceOnUse" cx="93.5" cy="71" r="44.5" id="gradient-0">
      <stop offset="0" style="stop-color: rgba(171, 205, 239, 1)"/>
      <stop offset="1" style="stop-color: rgba(85, 154, 223, 1)"/>
    </radialGradient>
    <radialGradient gradientUnits="userSpaceOnUse" cx="61.5" cy="143.5" r="76.5" id="gradient-1">
      <stop offset="0" style="stop-color: rgba(171, 205, 239, 1)"/>
      <stop offset="1" style="stop-color: rgba(85, 154, 223, 1)"/>
    </radialGradient>
  </defs>
  <g transform="matrix(1, 0, 0, 1, 157.582703, 78.492477)">
    <title>3</title>
    <desc>Created with Sketch.</desc>
    <g id="Mask-_x2B_-Mask-Mask" transform="translate(14.000000, 0.000000)">
      <g id="Mask"/>
      <g id="Mask_1_">
        <path class="st0" d="M138,141.2c-3.6,0.5-7.3,0.8-11,0.8c-29.6,0-55.4-16.5-68.6-40.9c-6-11-9.4-23.7-9.4-37.1 c0-26.5,13.2-49.9,33.4-64H138v129.5" style="opacity: 0.2; fill-rule: evenodd; fill: url(#gradient-0);"/>
      </g>
      <g id="Mask_2_">
        <path class="st0" d="M138,141.2V187H-15c0.2-43.3,31.9-79.1,73.4-85.9c4.6-0.8,9.3-1.1,14.1-1.1c26.1,0,49.5,11.4,65.5,29.5" style="opacity: 0.2; fill-rule: evenodd; fill: url(#gradient-1);"/>
      </g>
    </g>
  </g>
</svg>